<?xml version="1.0" encoding="UTF-8" standalone="no"?>
<svg
   xmlns:dc="http://purl.org/dc/elements/1.1/"
   xmlns:cc="http://creativecommons.org/ns#"
   xmlns:rdf="http://www.w3.org/1999/02/22-rdf-syntax-ns#"
   xmlns:svg="http://www.w3.org/2000/svg"
   xmlns="http://www.w3.org/2000/svg"
   id="svg8"
   version="1.1"
   viewBox="0 0 142.29166 216.8525"
   height="216.85249mm"
   width="142.29167mm">
  <defs
     id="defs2">
    <clipPath
       clipPathUnits="userSpaceOnUse"
       id="clipPath858">
      <path
         d="m 0,344.409 h 672.907 v 497.48 H 0 Z"
         id="path856" />
    </clipPath>
    <clipPath
       clipPathUnits="userSpaceOnUse"
       id="clipPath872">
      <path
         d="m 892.913,0 h 297.638 V 841.89 H 892.913 Z"
         id="path870" />
    </clipPath>
    <clipPath
       clipPathUnits="userSpaceOnUse"
       id="clipPath884">
      <path
         d="M 0,0 H 595.275 V 36 H 0 Z"
         id="path882" />
    </clipPath>
    <clipPath
       clipPathUnits="userSpaceOnUse"
       id="clipPath950">
      <path
         d="M 0,0 H 1190.551 V 841.89 H 0 Z"
         id="path948" />
    </clipPath>
    <clipPath
       clipPathUnits="userSpaceOnUse"
       id="clipPath998">
      <path
         d="M 0,0 H 1190.551 V 841.89 H 0 Z"
         id="path996" />
    </clipPath>
    <clipPath
       clipPathUnits="userSpaceOnUse"
       id="clipPath1018">
      <path
         d="M 0,0 H 1190.551 V 841.89 H 0 Z"
         id="path1016" />
    </clipPath>
    <clipPath
       clipPathUnits="userSpaceOnUse"
       id="clipPath1044">
      <path
         d="M 0,0 H 1190.551 V 841.89 H 0 Z"
         id="path1042" />
    </clipPath>
    <clipPath
       clipPathUnits="userSpaceOnUse"
       id="clipPath1068">
      <path
         d="M 0,0 H 1190.551 V 841.89 H 0 Z"
         id="path1066" />
    </clipPath>
    <clipPath
       clipPathUnits="userSpaceOnUse"
       id="clipPath1106">
      <path
         d="M 0,0 H 1190.551 V 841.89 H 0 Z"
         id="path1104" />
    </clipPath>
    <clipPath
       clipPathUnits="userSpaceOnUse"
       id="clipPath1130">
      <path
         d="M 0,0 H 1190.551 V 841.89 H 0 Z"
         id="path1128" />
    </clipPath>
    <clipPath
       clipPathUnits="userSpaceOnUse"
       id="clipPath1178">
      <path
         d="M 0,0 H 1190.551 V 841.89 H 0 Z"
         id="path1176" />
    </clipPath>
    <clipPath
       clipPathUnits="userSpaceOnUse"
       id="clipPath1194">
      <path
         d="M 0,0 H 1190.551 V 841.89 H 0 Z"
         id="path1192" />
    </clipPath>
    <clipPath
       clipPathUnits="userSpaceOnUse"
       id="clipPath1242">
      <path
         d="M 0,0 H 1190.551 V 841.89 H 0 Z"
         id="path1240" />
    </clipPath>
    <clipPath
       clipPathUnits="userSpaceOnUse"
       id="clipPath1262">
      <path
         d="M 0,0 H 1190.551 V 841.89 H 0 Z"
         id="path1260" />
    </clipPath>
    <clipPath
       clipPathUnits="userSpaceOnUse"
       id="clipPath1346">
      <path
         d="M 0,0 H 1190.551 V 841.89 H 0 Z"
         id="path1344" />
    </clipPath>
    <clipPath
       clipPathUnits="userSpaceOnUse"
       id="clipPath1362">
      <path
         d="M 0,0 H 1190.551 V 841.89 H 0 Z"
         id="path1360" />
    </clipPath>
    <clipPath
       clipPathUnits="userSpaceOnUse"
       id="clipPath1406">
      <path
         d="M 0,0 H 1190.551 V 841.89 H 0 Z"
         id="path1404" />
    </clipPath>
    <clipPath
       clipPathUnits="userSpaceOnUse"
       id="clipPath1426">
      <path
         d="M 0,0 H 1190.551 V 841.89 H 0 Z"
         id="path1424" />
    </clipPath>
    <clipPath
       clipPathUnits="userSpaceOnUse"
       id="clipPath1446">
      <path
         d="M 0,0 H 1190.551 V 841.89 H 0 Z"
         id="path1444" />
    </clipPath>
    <clipPath
       clipPathUnits="userSpaceOnUse"
       id="clipPath1470">
      <path
         d="M 0,0 H 1190.551 V 841.89 H 0 Z"
         id="path1468" />
    </clipPath>
    <clipPath
       clipPathUnits="userSpaceOnUse"
       id="clipPath1502">
      <path
         d="M 0,0 H 1190.551 V 841.89 H 0 Z"
         id="path1500" />
    </clipPath>
  </defs>
  <metadata
     id="metadata5">
    <rdf:RDF>
      <cc:Work
         rdf:about="">
        <dc:format>image/svg+xml</dc:format>
        <dc:type
           rdf:resource="http://purl.org/dc/dcmitype/StillImage" />
        <dc:title></dc:title>
      </cc:Work>
    </rdf:RDF>
  </metadata>
  <path
     style="fill:#047235;fill-opacity:1;fill-rule:nonzero;stroke:none;stroke-width:4.15985584"
     d="m 111.37376,4.9999998 v 0.009 c 1.74666,-0.0207 -31.236254,0.11388 -98.911931,0.1366 -2.7964998,0.586 -4.6969908,2.76383 -5.9143958,5.8567702 -1.203817,3.61368 -1.056724,7.3205 0.433281,11.12657 v 0.0128 c 4.3909608,8.125 16.6804418,16.89937 36.8566568,26.33838 2.788491,0.88124 7.649017,4.41827 14.612039,10.61219 4.864252,6.2339 6.362088,11.54479 4.495028,15.879868 -1.971474,4.430901 -0.203624,8.344429 5.353052,11.749818 0.18132,-1.578558 1.759821,-3.151206 4.659373,-4.729806 7.531268,-5.208347 7.905977,-12.191987 1.12696,-20.87007 C 71.35985,57.49253 57.534549,48.06429 32.591268,32.82437 c -3.982103,-2.9732 -6.060639,-6.12159 -6.219614,-9.4148 0.1363,-3.30977 1.246357,-5.13131 3.34459,-5.41068 1.769377,-0.15902 2.741811,0.82717 2.968936,2.98174 -0.2631,3.08496 -0.2631,5.04818 0,5.85677 3.581712,4.61536 12.069183,10.41833 25.48249,17.42943 V 22.02435 c 0.297381,-1.95562 1.374456,-3.03632 3.216527,-3.26348 h 28.391665 c 1.530895,-0.0207 2.611521,0.0683 3.229331,0.24758 1.737534,1.00168 1.737534,2.41583 0,4.2261 -6.450163,5.36847 -11.373688,9.76315 -14.755039,13.19266 -3.862159,3.5578 -3.55382,7.21653 0.868696,10.99852 12.66019,8.78977 21.20287,17.592575 25.30533,26.374662 9.39106,14.28666 3.92347,38.537908 -15.034646,40.211918 -8.253116,0.0207 -16.51213,0.0671 -24.989443,-0.16009 -3.758116,-0.0207 -5.897731,-1.668 -6.386097,-4.85787 V 64.637458 C 50.297854,55.95144 42.031142,50.07157 33.225182,46.96257 v 60.44594 c 0.329184,7.3155 -4.617198,13.87243 -14.825478,19.62572 -2.755817,1.05843 -4.135482,2.93732 -4.119374,5.64547 0.497453,2.86072 2.599272,4.20932 6.373291,4.02759 17.708033,-1.67397 29.969923,-2.14456 36.796893,-1.37455 16.930917,0.77906 29.871071,1.16324 38.805356,1.16324 13.93418,-0.39981 25.1633,-6.09753 33.39254,-17.59591 17.94053,-29.326726 -4.32297,-60.22984 -31.22186,-73.32272 -5.152095,-2.09869 -7.625197,-3.50404 -7.88871,-4.75329 -0.20445,-1.0652 1.265845,-2.54987 4.413917,-4.47368 8.837973,-6.15394 29.688863,-15.30822 22.125093,-28.6734098 -1.0811,-1.53766 -2.9868,-2.4287 -5.70309,-2.67652 z M 128.4126,143.41523 c -5.3204,0.0124 -8.71265,3.80328 -8.95803,8.27503 v 1.04799 c 0.0826,1.65567 0.6115,3.37629 1.6264,4.9902 2.00935,2.57495 4.45306,3.68639 7.33163,3.77787 h 0.0598 c 11.92215,-0.60723 11.3382,-17.81246 -0.0256,-18.09109 h -0.0128 z m -100.470035,0.0576 -2.627435,0.002 v 8.87053 l -5.801274,-8.84066 h -5.421352 l 0.03626,17.92033 2.584747,-0.0128 V 148.4161 l 8.535429,13.01551 2.693601,-0.0128 z m 16.823267,0.0384 0.02561,2.63811 h 4.53985 v 15.27583 h 5.118265 v -15.27583 h 4.509967 l -0.02561,-2.63811 z m 24.387547,0 0.02354,2.63811 h 4.533453 v 15.27583 h 5.107598 v -15.27583 h 4.503566 l -0.02561,-2.63811 z m 17.030301,0.0128 c 0.01239,4.4884 0.02561,8.9752 0.02561,13.45947 0.495223,5.96568 12.98445,6.95774 13.49148,0.17715 v -13.60033 h -2.27953 v 12.3389 c -0.0591,1.63069 -1.2574,2.87839 -3.058576,3.01163 -2.067586,0.0471 -3.417372,-0.948 -3.370204,-3.06498 v -12.32184 z m 16.64185,0 0.0256,2.65092 h 4.55051 v 15.26942 h 5.1076 v -15.26941 h 4.50356 l -0.0256,-2.65091 z m -92.9804638,0.0235 -4.766094,0.0256 -0.03628,17.87339 h 4.795976 z m 56.6744748,0 -4.770362,0.0256 -0.02561,17.87339 h 4.795974 z m -28.731032,0.0107 c -0.349581,-0.005 -0.714202,0.0116 -1.090674,0.0513 -3.402745,0.67803 -5.173267,2.51568 -5.318901,5.50247 0,2.37116 1.689105,3.88364 5.062774,5.0649 5.798815,2.5626 1.087555,8.42706 -3.101269,2.57835 -0.71099,0.44458 -1.423127,0.89892 -2.13866,1.34467 1.759672,2.52918 4.102373,3.63204 7.039221,3.27415 4.451015,-1.05298 6.149893,-3.46641 5.118268,-7.22705 -0.549495,-1.99652 -4.798143,-3.95358 -6.428784,-4.72322 -3.311218,-1.77618 1.854492,-5.90687 4.454473,-1.29771 0.595465,-0.43277 1.202394,-0.86153 1.797157,-1.27422 -1.15746,-2.16213 -2.946537,-3.26333 -5.393605,-3.29337 z m 90.630491,2.1666 c 2.23796,0 4.05748,3.08319 4.05748,6.87274 0,3.78979 -1.81952,6.86847 -4.05748,6.86847 -2.25456,0 -4.07028,-3.07868 -4.07028,-6.86847 0,-3.78955 1.81572,-6.87274 4.07028,-6.87274 z m -106.034389,24.0632 c 0.01239,4.47191 0.01322,8.92782 0.02561,13.3997 0.495223,5.93643 12.979738,6.92437 13.491483,0.17715 v -13.54484 h -2.292329 v 12.28342 c -0.05907,1.63069 -1.244595,2.87668 -3.045777,3.00522 -2.079935,0.0471 -3.41737,-0.9605 -3.370202,-3.06072 V 169.78803 Z M 5.0362842,169.97158 V 188.052 h 4.576134 v -0.0256 c 0.7983448,0.0248 1.6304148,0.0256 2.5164458,0.0256 0.915026,0 1.891896,-0.002 2.907041,-0.0256 2.936848,-0.26641 4.478536,-2.17959 4.582536,-4.23463 v -0.40341 c -0.09417,-1.89267 -1.411051,-3.81729 -4.027595,-4.5868 2.487596,-0.57779 3.643609,-2.06008 3.48546,-4.44381 -0.594309,-3.9351 -3.81936,-4.36269 -6.947442,-4.36269 -0.857284,0 -1.717853,0.0256 -2.5164458,0.0256 z m 54.5742348,0.007 -1.0736,0.007 -5.989098,18.01211 c 2.570863,0.0248 2.571941,-0.0256 2.571941,-0.0256 l 1.833439,-5.37439 h 2.657318 2.723482 l 2.023404,5.37439 h 5.538742 l -6.866336,-17.99352 z m 50.881741,0 -1.08,0.007 -5.98911,18.01211 c 2.57091,0.0248 2.57195,-0.0256 2.57195,-0.0256 l 1.83344,-5.37439 h 2.65731 2.72348 l 2.0234,5.37439 h 5.55155 l -6.86206,-17.99352 z m 26.7994,0.0128 -2.62103,0.002 v 8.87053 l -5.80127,-8.83425 h -5.42349 l 0.0384,17.92035 2.5826,-0.0128 V 174.9345 l 8.53757,13.01552 2.68719,-0.0128 z m -54.055572,0.0384 v 8.85345 l -5.807678,-8.82356 -5.410678,-0.0107 0.03635,17.92035 h 2.57194 v -12.99844 l 8.548235,13.01551 2.687196,-0.0107 v -17.94597 z m -44.995088,0.0256 0.02346,2.6317 h 4.539849 v 15.28224 h 5.118268 v -15.28224 h 4.503566 l -0.02354,-2.6317 z m 50.235016,0 0.02354,2.6317 H 93.033 v 15.28224 h 5.1204 v -15.28224 h 4.50784 l -0.0235,-2.6317 z m -78.8635978,2.38153 h 2.5164458 0.390594 c 1.07301,0.10611 1.714266,0.99193 1.888936,2.65091 0.01239,1.68896 -0.588653,2.44367 -1.912414,2.68079 H 12.130999 9.6124182 Z m 49.9426068,1.86546 0.05976,0.1814 1.809963,5.56436 -1.809963,0.0235 H 57.81763 Z m 50.875335,0 0.0598,0.1814 1.80356,5.56436 -1.80356,0.0235 h -1.80996 z m -99.526636,5.7223 c 0.425808,-10e-4 0.840403,0.0107 1.22514,0.064 1.385137,0.16273 2.445612,0.79983 2.516447,3.0095 -0.145386,1.4185 -0.931445,2.3242 -2.516447,2.6445 -0.682738,0.14952 -1.514023,0.17736 -2.5164458,0.10665 v -5.80768 c 0.4286628,0 0.8654978,-0.0157 1.2913058,-0.0169 z m -5.8546328,13.95251 v 1.0117 H 137.18708 v -1.0117 z m 81.0684248,4.89416 v 4.45874 c -0.454002,-0.54594 -1.08543,-0.80894 -1.901742,-0.80894 -0.890327,0 -1.620634,0.32063 -2.198425,0.96902 -0.574231,0.64853 -0.866562,1.43067 -0.866562,2.3457 0,0.91973 0.29478,1.70525 0.877234,2.3585 0.587209,0.65329 1.320985,0.98182 2.21123,0.98182 0.383292,0 0.742764,-0.0718 1.080003,-0.22626 0.332489,-0.15323 0.589926,-0.37722 0.77265,-0.6766 h 0.02561 v 0.69367 h 2.174945 v -10.09567 z m 38.668754,0 v 4.45874 c -0.454,-0.54594 -1.08445,-0.80894 -1.89961,-0.80894 -0.89024,0 -1.63269,0.32063 -2.20695,0.96902 -0.5778,0.64853 -0.86444,1.43067 -0.86444,2.3457 0,0.91973 0.29523,1.70525 0.88151,2.3585 0.58249,0.65329 1.32312,0.98182 2.21336,0.98182 0.38329,0 0.74067,-0.0718 1.07786,-0.22626 0.33249,-0.15323 0.59202,-0.37722 0.77479,-0.6766 h 0.0236 v 0.69367 h 2.18135 v -10.09567 z m -69.361291,0.21345 c -0.337446,0 -0.629565,0.11965 -0.866562,0.36499 -0.237079,0.24534 -0.354297,0.53649 -0.354297,0.87723 0,0.34075 0.118457,0.63554 0.354297,0.87725 0.237079,0.24534 0.529281,0.36499 0.866562,0.36499 0.332489,0 0.616277,-0.11965 0.858024,-0.36499 0.237079,-0.24163 0.354297,-0.53645 0.354297,-0.87725 0,-0.34075 -0.118457,-0.63196 -0.354297,-0.87723 -0.240384,-0.24534 -0.525494,-0.36499 -0.858024,-0.36499 z m 60.793851,0 c -0.33621,0 -0.62312,0.11965 -0.86016,0.36499 -0.23708,0.24534 -0.3586,0.53649 -0.3586,0.87723 0,0.34075 0.12152,0.63554 0.3586,0.87725 0.23708,0.24534 0.52288,0.36499 0.86016,0.36499 0.33249,0 0.61845,-0.11965 0.86016,-0.36499 0.23708,-0.24163 0.3607,-0.53645 0.3607,-0.87725 0,-0.34075 -0.12362,-0.63196 -0.3607,-0.87723 -0.24038,-0.24534 -0.52763,-0.36499 -0.86016,-0.36499 z m -107.7525798,0.7061 -3.4662504,9.17147 h 2.4865654 l 0.621107,-1.59011 h 3.2229298 l 0.584823,1.59011 h 2.499372 l -3.393682,-9.17147 z m 53.8933628,2.72348 c -0.969299,0 -1.782765,0.3196 -2.439606,0.9562 -0.656759,0.63677 -0.986088,1.44699 -0.986088,2.43748 0,0.93626 0.326954,1.71478 0.975415,2.33502 0.648539,0.61906 1.435171,0.93274 2.358499,0.93274 0.557797,0 1.066005,-0.12366 1.528227,-0.3607 v -1.86973 c -0.304403,0.28292 -0.664511,0.42688 -1.084273,0.42688 -0.449253,0 -0.814826,-0.14217 -1.101344,-0.43329 -0.286643,-0.28664 -0.433281,-0.65136 -0.433281,-1.09706 0,-0.43278 0.146708,-0.78835 0.433281,-1.08428 0.286642,-0.29118 0.638895,-0.43969 1.058657,-0.43969 0.357271,0 0.73549,0.14844 1.12696,0.43969 v -1.87613 c -0.428023,-0.24039 -0.908761,-0.3671 -1.436447,-0.3671 z m 31.356334,0 c -0.893838,0 -1.629175,0.32695 -2.206963,0.97542 -0.578939,0.64853 -0.864426,1.43063 -0.864426,2.3457 0,0.91853 0.291104,1.69897 0.877234,2.35209 0.582496,0.65325 1.320985,0.98823 2.21123,0.98823 0.383291,0 0.742805,-0.0718 1.080002,-0.22626 0.333726,-0.14952 0.591536,-0.38354 0.779056,-0.683 h 0.0256 v 0.6958 h 2.17494 v -6.24094 h -2.18135 v 0.61043 c -0.454,-0.54007 -1.08389,-0.81533 -1.895329,-0.81533 z m 38.664483,0 c -0.89495,0 -1.62917,0.32695 -2.20696,0.97542 -0.57899,0.64853 -0.86443,1.43063 -0.86443,2.3457 0,0.91853 0.29111,1.69897 0.87724,2.35209 0.58249,0.65325 1.32094,0.98823 2.21122,0.98823 0.38329,0 0.74063,-0.0718 1.07787,-0.22626 0.33373,-0.14952 0.59963,-0.38354 0.78119,-0.683 h 0.0236 v 0.6958 h 2.17495 v -6.24094 h -2.18136 v 0.61043 c -0.45399,-0.54007 -1.08397,-0.81533 -1.89533,-0.81533 z m -99.765684,0.009 c -1.009583,4.2e-4 -1.831331,0.29131 -2.454549,0.89003 -0.62731,0.59427 -0.939133,1.41208 -0.939133,2.44388 0,1.04356 0.331258,1.8557 0.988223,2.44174 0.656759,0.58254 1.510824,0.87297 2.559135,0.87297 0.748741,0 1.415293,-0.18236 1.997789,-0.54427 0.58134,-0.36553 0.956446,-0.89525 1.12269,-1.59439 h -2.091703 c -0.220558,0.38329 -0.571059,0.57202 -1.041582,0.57202 -0.906766,0 -1.359607,-0.45963 -1.359607,-1.38309 h 4.576133 v -0.23906 c 0,-1.06946 -0.290707,-1.91328 -0.881503,-2.53352 -0.585635,-0.61981 -1.413598,-0.9259 -2.473759,-0.92632 z m 37.202429,0 c -1.031789,0 -1.910002,0.29725 -2.621033,0.89644 -0.712229,0.59905 -1.071461,1.41382 -1.071461,2.43747 0,1.02353 0.35566,1.83036 1.071461,2.42467 0.719291,0.59551 1.593994,0.89004 2.621033,0.89004 1.035301,0 1.905249,-0.2959 2.62103,-0.89004 0.712187,-0.59431 1.071465,-1.40114 1.071465,-2.42467 0,-1.02353 -0.360286,-1.83842 -1.071465,-2.43747 -0.715781,-0.59902 -1.585729,-0.89644 -2.62103,-0.89644 z m -44.939595,0.005 v 0.005 c -0.470524,0 -0.90306,0.0696 -1.29771,0.22411 -0.394856,0.14951 -0.722452,0.39304 -0.992491,0.73849 -0.270122,0.3453 -0.409804,0.76112 -0.409804,1.24863 0,0.50348 0.121501,0.87924 0.371384,1.11628 0.24534,0.24162 0.57624,0.41133 0.992491,0.52933 0.09417,0.0124 0.230958,0.0477 0.396996,0.0833 0.166038,0.0372 0.289604,0.0704 0.384192,0.0939 0.09417,0.0248 0.197829,0.0597 0.292413,0.10665 0.106144,0.0471 0.17916,0.10656 0.226245,0.17714 0.03717,0.0706 0.05763,0.14791 0.05763,0.23052 0,0.15447 -0.0699,0.27169 -0.207035,0.35429 -0.144974,0.0826 -0.303404,0.12168 -0.469566,0.12168 -0.258144,0 -0.546562,-0.0603 -0.870831,-0.18995 -0.325468,-0.12515 -0.612011,-0.27285 -0.853756,-0.44395 l -0.785456,1.54742 c 0.765261,0.4788 1.591734,0.7193 2.473759,0.7193 0.790043,0 1.466598,-0.19627 2.036208,-0.59123 0.569527,-0.39155 0.851622,-0.9702 0.851622,-1.73526 0,-0.98578 -0.593943,-1.60082 -1.780083,-1.84624 -0.02478,0 -0.06956,-0.0132 -0.145138,-0.0256 -0.07063,-0.0124 -0.136474,-0.024 -0.183559,-0.0364 -0.04709,-0.0124 -0.106529,-0.0248 -0.177153,-0.047 -0.08261,-0.0248 -0.134338,-0.0469 -0.181423,-0.0705 -0.04709,-0.0248 -0.09523,-0.061 -0.147274,-0.0961 -0.04709,-0.0372 -0.08317,-0.0829 -0.106723,-0.13449 -0.02478,-0.0471 -0.03626,-0.0938 -0.03626,-0.15154 0,-0.14167 0.07115,-0.25166 0.219844,-0.32228 0.144973,-0.0706 0.298653,-0.10665 0.456759,-0.10665 0.408074,0 0.795854,0.10698 1.169646,0.30523 l 0.725693,-1.40869 c -0.578985,-0.2631 -1.250497,-0.39486 -2.010596,-0.39486 z m -15.1541738,0.10885 h 0.02346 l 0.9562068,2.9113 H 8.7607962 Z m 32.8504058,0.007 c -0.915067,0 -1.577431,0.3683 -1.980715,1.10989 h -0.02561 v -1.02237 l -2.181348,0.009 v 6.23883 h 2.174945 v -2.51645 c 0,-0.60372 0.105665,-1.06642 0.328697,-1.39589 0.220558,-0.32918 0.610075,-0.49304 1.17605,-0.49304 0.375031,0 0.682885,0.0699 0.919922,0.20705 v -2.13225 z m 1.984984,0.0833 3.218659,6.24096 h 1.383088 l 3.20372,-6.24096 h -2.437475 l -1.462055,3.19946 -1.468462,-3.19946 z m 60.802384,0 3.21013,6.24096 h 1.38948 l 3.19946,-6.24096 h -2.43748 l -1.45565,3.19946 -1.46846,-3.19946 z m -51.026877,0.009 v 6.23882 h 2.174945 v -6.23882 z m 60.793847,0 v 6.23882 h 2.17494 v -6.23882 z m -88.235705,0.18995 -0.0043,0.005 c 0.0042,0.002 0.0086,0.002 0.0128,0.007 z m 5.833289,1.03519 c 0.303164,0 0.569485,0.0948 0.798262,0.27532 0.233362,0.17926 0.3743,0.41308 0.433282,0.70435 h -2.52285 c 0.05907,-0.31143 0.210467,-0.55256 0.443953,-0.72355 0.237079,-0.17099 0.518416,-0.25612 0.847353,-0.25612 z m 37.091441,0.48663 c 0.432773,0 0.772407,0.13258 1.022373,0.40766 0.248644,0.27012 0.371396,0.59917 0.371396,0.99889 0,0.40312 -0.121513,0.74357 -0.371396,1.0053 -0.249883,0.26186 -0.5896,0.39701 -1.022373,0.39701 -0.428022,0 -0.774501,-0.13515 -1.024508,-0.39701 -0.2536,-0.26186 -0.37565,-0.60202 -0.37565,-1.0053 0,-0.39857 0.12205,-0.72889 0.37565,-0.99889 0.248644,-0.27466 0.596486,-0.40766 1.024508,-0.40766 z m 14.972748,0 c 0.432772,0 0.772411,0.13754 1.022377,0.40766 0.248644,0.27012 0.377798,0.60388 0.377798,0.99889 0,0.40808 -0.127502,0.73882 -0.377798,1.0053 -0.249883,0.26186 -0.589605,0.39701 -1.022377,0.39701 -0.428023,0 -0.768095,-0.13515 -1.018102,-0.39701 -0.2536,-0.2664 -0.377798,-0.59731 -0.377798,-1.0053 0,-0.39485 0.124198,-0.72889 0.377798,-0.99889 0.248644,-0.27136 0.590079,-0.40766 1.018102,-0.40766 z m 9.498041,0 c 0.432773,0 0.774496,0.13754 1.024506,0.40766 0.24988,0.27467 0.3778,0.60388 0.3778,0.99889 0,0.40808 -0.12751,0.73882 -0.3778,1.0053 -0.24989,0.26186 -0.591733,0.39701 -1.024506,0.39701 -0.428022,0 -0.766005,-0.13515 -1.01597,-0.39701 -0.249883,-0.2664 -0.386348,-0.59731 -0.386348,-1.0053 0,-0.39485 0.134813,-0.72534 0.386348,-0.99889 0.248644,-0.27012 0.587948,-0.40766 1.01597,-0.40766 z m 29.170716,0 c 0.43273,0 0.77241,0.13754 1.02237,0.40766 0.24864,0.27012 0.3714,0.60388 0.3714,0.99889 0,0.40808 -0.12152,0.73882 -0.3714,1.0053 -0.24988,0.26186 -0.58964,0.39701 -1.02237,0.39701 -0.42806,0 -0.7681,-0.13515 -1.0181,-0.39701 -0.2536,-0.2664 -0.3842,-0.59731 -0.3842,-1.0053 0,-0.39485 0.1306,-0.72889 0.3842,-0.99889 0.24864,-0.27136 0.59004,-0.40766 1.0181,-0.40766 z m 9.49377,0 c 0.43277,0 0.77236,0.13754 1.02237,0.40766 0.24988,0.27467 0.37779,0.60388 0.37779,0.99889 0,0.40808 -0.1275,0.73882 -0.37779,1.0053 -0.24989,0.26186 -0.5896,0.39701 -1.02237,0.39701 -0.42806,0 -0.76814,-0.13515 -1.0181,-0.39701 -0.24989,-0.2664 -0.3778,-0.59731 -0.3778,-1.0053 0,-0.39485 0.1275,-0.72534 0.3778,-0.99889 0.24864,-0.27012 0.59004,-0.40766 1.0181,-0.40766 z m -71.222481,4.89416 -1.553838,1.91882 0.932728,0.59122 1.805696,-1.73739 z"
     id="path1334-6" />
</svg>
